<svg width="80" height="43" viewBox="0 0 80 43" fill="none" xmlns="http://www.w3.org/2000/svg">
<rect width="80" height="43" fill="#E5E5E5"/>
<rect width="768" height="3020" transform="translate(-88 -2431)" fill="white"/>
<rect x="-72.5" y="-23.5" width="225" height="89" rx="3.5" stroke="#2196F3"/>
<path d="M12.4021 12.8306H12.3994C10.1371 12.8306 8.3031 14.6177 8.3031 16.8223V16.8249C8.3031 19.0295 10.1371 20.8167 12.3994 20.8167H12.4021C14.6644 20.8167 16.4983 19.0295 16.4983 16.8249V16.8223C16.4983 14.6177 14.6644 12.8306 12.4021 12.8306Z" fill="#2196F3"/>
<path d="M42.6368 11.5545C42.6304 8.49242 41.3795 5.55752 39.1579 3.39207C36.9363 1.22661 33.925 0.00695286 30.7828 0V0C27.6397 0.00556265 24.6269 1.22461 22.4041 3.39022C20.1814 5.55582 18.9298 8.49151 18.9233 11.5545V28.4402C18.9233 28.4402 42.6341 25.8667 42.6368 11.5571V11.5545Z" fill="#2196F3"/>
<path d="M0 33.9823C0.00569904 36.1129 0.876556 38.1547 2.42228 39.6615C3.96799 41.1683 6.0629 42.0177 8.24923 42.0239C10.4351 42.0177 12.5296 41.1687 14.0752 39.6625C15.6209 38.1562 16.492 36.1151 16.4985 33.9849V22.2356C16.4985 22.2356 0 24.0276 0 33.9823ZM8.24923 36.0874C7.82198 36.0874 7.40433 35.964 7.04909 35.7326C6.69385 35.5013 6.41697 35.1726 6.25347 34.7879C6.08997 34.4032 6.04719 33.98 6.13054 33.5716C6.2139 33.1632 6.41963 32.7881 6.72174 32.4937C7.02385 32.1993 7.40876 31.9988 7.8278 31.9176C8.24683 31.8364 8.68117 31.8781 9.0759 32.0374C9.47062 32.1967 9.808 32.4665 10.0454 32.8127C10.2827 33.1589 10.4094 33.5659 10.4094 33.9823C10.4105 34.2594 10.3554 34.534 10.2473 34.7903C10.1392 35.0466 9.98028 35.2796 9.77958 35.476C9.57889 35.6723 9.34039 35.828 9.07777 35.9343C8.81516 36.0406 8.53359 36.0953 8.24923 36.0953V36.0874Z" fill="#2196F3"/>
<text fill="#2196F3" xml:space="preserve" style="white-space: pre" font-family="Roboto" font-size="6" font-weight="bold" letter-spacing="0em"><tspan x="22.1418" y="36.0752">FOSTER PETERS</tspan></text>
</svg>
